<svg id="svg" xmlns="http://www.w3.org/2000/svg" xmlns:xlink="http://www.w3.org/1999/xlink" width="400" height="400" viewBox="0, 0, 400,400"><g id="svgg"><path id="path0" d="M196.484 14.456 C 181.155 16.295,169.931 29.701,170.828 45.101 C 170.953 47.258,171.162 49.379,171.293 49.814 C 171.509 50.536,171.213 50.668,167.894 51.334 C 111.157 62.710,62.710 111.157,51.334 167.894 C 50.670 171.206,50.534 171.509,49.814 171.303 C 41.457 168.908,29.760 172.446,22.853 179.460 C 6.596 195.966,14.406 222.911,37.085 228.568 C 40.358 229.384,47.470 229.465,49.847 228.714 C 50.576 228.483,50.702 228.648,50.937 230.145 C 53.076 243.796,60.929 263.868,70.054 279.010 C 91.225 314.140,128.664 340.801,167.863 348.660 L 171.467 349.383 171.183 350.961 C 166.557 376.621,195.132 395.221,216.655 380.560 C 226.014 374.185,231.575 360.171,228.704 350.195 C 228.498 349.479,228.893 349.325,233.478 348.344 C 289.929 336.258,337.522 288.235,348.673 232.106 C 349.335 228.776,349.462 228.492,350.186 228.722 C 352.522 229.466,359.659 229.380,362.915 228.568 C 385.584 222.914,393.396 195.959,377.147 179.460 C 370.240 172.446,358.543 168.908,350.186 171.303 C 349.466 171.509,349.330 171.206,348.666 167.894 C 337.290 111.159,288.841 62.710,232.106 51.334 C 228.794 50.670,228.491 50.534,228.697 49.814 C 233.912 31.619,216.129 12.100,196.484 14.456 M205.264 24.687 C 213.153 26.670,219.548 35.036,219.525 43.344 C 219.479 60.663,198.410 69.419,186.188 57.197 C 172.162 43.171,185.868 19.811,205.264 24.687 M178.889 63.795 C 190.623 76.518,213.010 75.267,223.251 61.316 L 224.607 59.468 227.636 60.039 C 283.327 70.537,329.460 116.658,339.954 172.328 L 340.518 175.319 338.146 177.210 C 323.834 188.622,323.692 210.943,337.858 222.516 L 340.516 224.688 339.953 227.676 C 329.701 282.062,286.355 326.634,231.641 339.053 C 224.295 340.721,224.931 340.789,222.760 338.095 C 211.039 323.546,187.641 323.847,176.748 338.686 L 175.391 340.534 172.754 340.030 C 116.439 329.266,70.580 283.554,60.049 227.687 L 59.488 224.710 62.248 222.414 C 76.319 210.708,76.126 188.590,61.854 177.210 L 59.482 175.319 60.046 172.328 C 70.463 117.066,114.850 72.184,170.773 60.364 L 175.195 59.430 176.172 60.669 C 176.709 61.351,177.932 62.757,178.889 63.795 M48.011 181.070 C 70.514 186.375,66.329 219.374,43.164 219.286 C 24.368 219.215,16.854 194.222,32.519 183.878 C 37.168 180.809,42.670 179.811,48.011 181.070 M363.086 181.665 C 379.933 187.905,380.210 211.880,363.508 218.166 C 348.805 223.701,333.996 210.671,337.533 195.313 C 340.040 184.430,352.534 177.756,363.086 181.665 M204.867 337.707 C 219.536 341.528,224.394 359.683,213.608 370.377 C 202.932 380.962,184.890 375.795,181.050 361.053 C 177.427 347.143,190.793 334.042,204.867 337.707 " stroke="none" fill="#fff" fill-rule="evenodd"></path></g></svg>
