<svg id="svg" xmlns="http://www.w3.org/2000/svg" xmlns:xlink="http://www.w3.org/1999/xlink" width="400" height="400" viewBox="0, 0, 400,400"><g id="svgg"><path id="path0" d="M89.453 104.883 L 89.453 110.938 200.000 110.938 L 310.547 110.938 310.547 104.883 L 310.547 98.828 200.000 98.828 L 89.453 98.828 89.453 104.883 M303.875 123.832 C 293.846 126.300,285.396 134.259,282.625 143.848 L 281.976 146.094 185.714 146.094 L 89.453 146.094 89.453 152.148 L 89.453 158.203 185.696 158.203 L 281.939 158.203 282.393 160.008 C 288.877 185.758,325.295 189.118,336.910 165.039 C 347.611 142.856,327.667 117.978,303.875 123.832 M315.445 133.410 C 330.252 137.212,335.118 155.969,323.997 166.373 C 313.618 176.082,296.843 171.929,292.225 158.507 C 287.244 144.030,300.597 129.598,315.445 133.410 M89.453 199.805 L 89.453 205.859 200.000 205.859 L 310.547 205.859 310.547 199.805 L 310.547 193.750 200.000 193.750 L 89.453 193.750 89.453 199.805 M89.453 247.461 L 89.453 253.516 200.000 253.516 L 310.547 253.516 310.547 247.461 L 310.547 241.406 200.000 241.406 L 89.453 241.406 89.453 247.461 M82.605 266.749 C 56.354 273.207,51.972 308.194,75.781 321.220 C 91.690 329.923,113.182 320.549,117.607 302.977 L 118.061 301.172 214.304 301.172 L 310.547 301.172 310.547 295.117 L 310.547 289.063 214.296 289.063 L 118.045 289.063 117.230 286.426 C 112.812 272.128,97.080 263.188,82.605 266.749 M95.201 276.774 C 109.436 281.552,113.452 298.365,102.909 309.038 C 90.908 321.187,69.900 312.461,69.927 295.339 C 69.947 282.048,82.797 272.610,95.201 276.774 " stroke="none" fill="#fff" fill-rule="evenodd"></path></g></svg>
