<svg id="svg" xmlns="http://www.w3.org/2000/svg" xmlns:xlink="http://www.w3.org/1999/xlink" width="400" height="400" viewBox="0, 0, 400,400"><g id="svgg"><path id="path0" d="M303.557 60.901 C 285.669 65.427,275.967 86.651,284.505 102.578 L 285.113 103.711 194.479 194.366 L 103.846 285.022 100.654 283.749 C 70.894 271.889,46.151 308.716,68.718 331.282 C 91.386 353.951,129.296 327.859,116.070 298.691 L 114.938 296.194 205.614 205.563 L 296.289 114.932 298.394 115.880 C 320.296 125.751,344.251 106.594,339.287 83.178 C 335.915 67.272,319.306 56.916,303.557 60.901 M317.673 71.192 C 333.515 77.054,334.362 99.447,319.023 106.856 C 304.774 113.738,288.311 101.052,291.543 85.681 C 294.067 73.672,306.198 66.946,317.673 71.192 M93.100 291.595 C 108.446 294.846,114.048 313.368,103.020 324.396 C 94.606 332.810,80.880 331.824,73.714 322.291 C 63.100 308.171,75.873 287.945,93.100 291.595 " stroke="none" fill-rule="evenodd"></path></g></svg>
