<svg id="svg" xmlns="http://www.w3.org/2000/svg" xmlns:xlink="http://www.w3.org/1999/xlink" width="400" height="400" viewBox="0, 0, 400,400"><g id="svgg"><path id="path0" d="M82.126 60.942 C 49.914 69.383,54.199 114.511,87.598 118.572 L 89.453 118.798 89.453 200.024 L 89.453 281.250 88.379 281.255 C 69.835 281.344,55.433 301.943,61.482 319.727 C 71.711 349.798,115.183 344.667,118.566 312.988 L 118.827 310.547 200.000 310.547 L 281.173 310.547 281.434 312.988 C 284.818 344.676,328.370 349.817,338.508 319.727 C 344.517 301.888,330.159 281.344,311.621 281.255 L 310.547 281.250 310.547 200.024 L 310.547 118.798 312.402 118.572 C 335.774 115.730,347.503 91.989,334.919 72.993 C 319.807 50.180,284.376 59.467,281.434 87.012 L 281.173 89.453 199.990 89.453 L 118.806 89.453 118.562 87.207 C 116.563 68.781,99.406 56.414,82.126 60.942 M94.252 70.537 C 109.280 74.431,113.809 93.034,102.319 103.671 C 89.946 115.127,69.922 106.218,69.922 89.258 C 69.922 76.522,81.870 67.328,94.252 70.537 M317.673 71.192 C 333.515 77.054,334.362 99.447,319.023 106.856 C 304.774 113.738,288.311 101.052,291.543 85.681 C 294.067 73.672,306.198 66.946,317.673 71.192 M284.336 102.246 C 287.037 107.823,292.976 113.645,298.188 115.823 L 299.609 116.417 299.608 199.908 L 299.608 283.398 297.364 284.570 C 292.151 287.292,287.278 292.126,284.664 297.167 L 283.398 299.606 200.000 299.606 L 116.602 299.606 115.339 297.167 C 112.743 292.153,107.485 286.973,102.530 284.549 L 100.391 283.502 100.391 200.000 L 100.391 116.498 102.482 115.475 C 107.534 113.003,112.079 108.612,114.922 103.458 L 116.602 100.414 200.020 100.402 L 283.438 100.391 284.336 102.246 M93.100 291.595 C 108.446 294.846,114.048 313.368,103.020 324.396 C 94.606 332.810,80.880 331.824,73.714 322.291 C 63.100 308.171,75.873 287.945,93.100 291.595 M314.642 291.607 C 328.518 294.546,334.765 311.011,326.286 322.291 C 316.128 335.803,295.042 330.965,291.543 314.319 C 288.735 300.962,301.155 288.750,314.642 291.607 " stroke="none" fill="#fff" fill-rule="evenodd"></path></g></svg>
